# xmcd
#
# Track frame offsets:
#  150
#  13781
#  24976
#  37379
#  49722
#  60579
#  73129
#  82856
#  93602
#  105263
#  117243
#  132660
#  143304
#  153395
#  167832
#  180370
#  194433
#  204988
#  216445
#  230209
#
# Disc length: 3243 seconds
#
# Revision: 0
# Processed by: cddbd v1.4PL0 Copyright (c) Steve Scherf et al.
# Submitted via: AltoMP3_Maker 3.0
#
DISCID=190ca914
DTITLE=Maria Dolores Pradera - Platino
DYEAR=1900
DGENRE=
TTITLE0=La Flor De La Canela
TTITLE1=El Rosario De Mi Madre
TTITLE2=De Carne y Hueso
TTITLE3=Pa Todo El Ano
TTITLE4=Fina Estampa
TTITLE5=Toda Una Vida
TTITLE6=Quisiera Amarte Menos
TTITLE7=El Tiempo Que Te Quede Libre
TTITLE8=Amarraditos
TTITLE9=En Un Rincon Del Alma
TTITLE10=Dos Amores
TTITLE11=Limena
TTITLE12=Amaneci En Tus Brazos
TTITLE13=Son De La Loma
TTITLE14=Carino Malo
TTITLE15=Tu Que Puedes Vuelvete
TTITLE16=El Ausente
TTITLE17=Cuando Vivas Conmigo
TTITLE18=Cuando Ya No Me Quieras
TTITLE19=Mi Mejor Tristeza 
EXTD=
EXTT0=
EXTT1=
EXTT2=
EXTT3=
EXTT4=
EXTT5=
EXTT6=
EXTT7=
EXTT8=
EXTT9=
EXTT10=
EXTT11=
EXTT12=
EXTT13=
EXTT14=
EXTT15=
EXTT16=
EXTT17=
EXTT18=
EXTT19=
PLAYORDER=
